# xmcd
#
# Track frame offsets: 
#        150
#        11984
#        21056
#        32957
#        45485
#        56094
#        67442
#        80402
#        91191
#        102266
#        113994
#        125064
#        135632
#        147496
#        160028
#        169855
#        180381
#        190492
#        203381
#        213891
#        224077
#        240373
#        248539
#        256685
#        269716
#
# Disc length: 3710 seconds
#
# Revision: 0
# Processed by: cddbd v1.5.2PL0 Copyright (c) Steve Scherf et al.
# Submitted via: ExactAudioCopyFreeDBPlugin 1.0
#
DISCID=6e0e7c19
DTITLE=Chuck Willis  - The Complete Chuck Willis 1951-1957
DYEAR=2009
DGENRE=Rhythm and Blues
TTITLE0=It's Too Late
TTITLE1=Kansas City Woman
TTITLE2=Juanita
TTITLE3=Whatcha Gonna Do When Your Baby Leaves You
TTITLE4=Ease the Pain
TTITLE5=C.C. Rider
TTITLE6=The Train Has Gone
TTITLE7=Love Me Cherry
TTITLE8=Betty and Dupree
TTITLE9=My Crying Eyes
TTITLE10=What Am I Living For
TTITLE11=Hang Up My Rock and Roll Shoes
TTITLE12=Thunder and Lightnin'
TTITLE13=My Life
TTITLE14=You'll Be My Love
TTITLE15=Keep a Drivin'
TTITLE16=There's Got to Be a Way
TTITLE17=Stop and Think
TTITLE18=From the Bottom of My Heart
TTITLE19=Just One Kiss
TTITLE20=I'll Be so Glad When Your Heart Is Mine
TTITLE21=Big Drops of Rain
TTITLE22=Sugar Sugar
TTITLE23=Love of Loves
TTITLE24=My Baby
EXTD=
EXTT0=
EXTT1=
EXTT2=
EXTT3=
EXTT4=
EXTT5=
EXTT6=
EXTT7=
EXTT8=
EXTT9=
EXTT10=
EXTT11=
EXTT12=
EXTT13=
EXTT14=
EXTT15=
EXTT16=
EXTT17=
EXTT18=
EXTT19=
EXTT20=
EXTT21=
EXTT22=
EXTT23=
EXTT24=
PLAYORDER=
